<?xml version="1.0" standalone="no"?>
<!DOCTYPE svg PUBLIC "-//W3C//DTD SVG 1.1//EN" "http://www.w3.org/Graphics/SVG/1.1/DTD/svg11.dtd" >
<svg xmlns="http://www.w3.org/2000/svg">
<metadata>Generated by IcoMoon</metadata>
<defs>
<font id="blognew-icons" horiz-adv-x="1024">
<font-face units-per-em="1024" ascent="960" descent="-64" />
<missing-glyph horiz-adv-x="1024" />
<glyph unicode="&#x20;" horiz-adv-x="512" d="" />
<glyph unicode="&#xe900;" glyph-name="accordion" d="M931.84 878.080c16.966 0 30.72-13.754 30.72-30.72v-798.72c0-16.966-13.754-30.72-30.72-30.72s-30.72 13.754-30.72 30.72v798.72c0 16.966 13.754 30.72 30.72 30.72zM737.28 919.040c11.311 0 20.48-9.169 20.48-20.48v-901.12c0-11.311-9.169-20.48-20.48-20.48h-430.080c-11.311 0-20.48 9.169-20.48 20.48v901.12c0 11.311 9.169 20.48 20.48 20.48h430.080zM327.68 878.080v-860.16h389.12v860.16h-389.12zM92.16 878.080c16.966 0 30.72-13.754 30.72-30.72v-798.72c0-16.966-13.754-30.72-30.72-30.72s-30.72 13.754-30.72 30.72v798.72c0 16.966 13.754 30.72 30.72 30.72z" />
<glyph unicode="&#xe901;" glyph-name="blognews-favicon" d="M755.388 365.668c-13.013 23.022-26.526 47.016-40.526 72.010-14.029 24.994-27.662 49.381-40.888 73.163-13.255 23.779-25.145 45.423-35.67 64.911-8.493 16.015-16.108 30.667-22.87 43.921-6.75 13.224-12.634 25.6-17.654 37.126 3.518-40.038 8.659-73.677 15.409-100.946 6.762-27.255 14.377-49.76 22.87-67.521 8.493-17.744 17.502-32.881 26.997-45.378 9.509-12.528 18.653-23.796 27.421-33.79 8.735-9.98 16.742-20.718 24.023-32.213 7.25-11.528 12.982-25.541 17.228-42.041 4.248-16.531 6.371-37.31 6.371-62.304v-14.256h-163.553v508.739h18.745c0-20.020 3.76-35.399 11.282-46.167 7.494-10.752 17.623-18.881 30.394-24.386 12.739-5.491 26.995-10.254 42.768-14.258 15.743-4.004 31.848-8.993 48.349-14.983 16.503-6.021 32.395-14.772 47.684-26.268 15.258-11.481 28.877-27.496 40.888-48.048l140.319-246.845c-2.988 44.528-7.614 81.684-13.892 111.442-6.265 29.772-13.771 54.415-22.508 73.951-8.765 19.503-18.033 35.762-27.785 48.773-9.736 12.982-19.245 24.615-28.512 34.884-9.251 10.238-17.623 21.111-25.115 32.637-7.522 11.497-13.529 25.479-18.018 41.982-4.489 16.501-6.734 37.521-6.734 63.029v14.257h163.553v-508.739h-18.745c-16.501 0-33.38 0.76-50.655 2.245-17.258 1.501-34.654 5.505-52.173 12.012-17.502 6.523-34.64 17.033-51.382 31.547-16.744 14.483-32.608 34.988-47.622 61.514zM275.087 179.712c-13.953 0-27.664 0.53-41.132 1.577-13.468 1.063-26.419 2.351-38.825 3.883h-142.139v363.385c0 33.638 5.824 61.348 17.471 83.11 11.648 21.75 26.647 38.842 45.014 51.263 18.397 12.405 38.219 21.201 59.452 26.388 21.233 5.171 41.403 7.766 60.544 7.766 48.683 0 92.043-5.325 130.066-15.956 38.052-10.6 68.082-26.253 90.087-46.954 21.991-20.718 33.001-46.334 33.001-76.863 0-32.121-12.177-58.526-36.52-79.229-24.312-20.716-57.176-35.715-98.58-45.013 52.294-6.717 94.47-20.566 126.548-41.556 32.106-20.959 48.167-49.805 48.167-86.569 0-30.013-11.010-55.902-33.001-77.65-22.006-21.764-52.036-38.463-90.087-50.11-38.068-11.647-81.414-17.471-130.066-17.471zM232.378 456.163c28.467 0.516 51.112 6.871 67.946 19.048 16.818 12.163 24.963 29.377 24.447 51.626-0.485 22.233-12.648 48.124-36.461 77.652-17.592 22.764-38.31 39.584-62.12 50.473-23.827 10.875-46.091 16.318-66.793 16.318-17.077 0-29.635-3.002-37.673-8.978-8.008-5.945-12.664-12.8-13.953-20.564-1.304-7.766-0.652-15.016 1.941-21.719 4.125-9.312 10.45-16.955 18.988-22.931 8.569-5.945 18.276-11.891 29.119-17.836 10.874-5.945 21.233-12.8 31.061-20.564 9.858-7.766 18.034-18.004 24.509-30.697 6.459-12.665 9.705-29.104 9.705-49.32v-222.824c45.529-52.824 87.98-68.612 127.336-47.378 9.828 5.702 16.804 16.167 20.931 31.425 4.155 15.286 4.549 33.395 1.151 54.356-3.367 20.99-11.753 42.344-25.176 64.061-17.637 27.982-36.551 48.441-56.721 61.393-20.187 12.937-39.598 19.413-58.239 19.413v17.048z" />
<glyph unicode="&#xe902;" glyph-name="video-post" d="M252.762-64c-28.84 0-52.385 23.333-52.385 51.917v53.916h623.163v-53.916c0-28.5-23.546-51.917-52.386-51.917h-518.392zM94.429 255.834c-51.965 0-94.429 42.082-94.429 93.583v516.999c0 51.5 42.463 93.583 94.429 93.583h835.142c51.966 0 94.429-42.083 94.429-93.583v-516.999c0-51.501-42.463-93.583-94.429-93.583h-835.142zM454.99 422.5l229.47 158.583c3.785 2.417 7.231 5.583 9.923 9.417 10.762 15.417 6.812 36.583-8.745 47.249l-228.463 156.584c-5.886 4.833-13.453 7.667-21.778 7.667-19.003 0-34.39-15.25-34.39-34.083v-317.584h0.168c0-6.75 2.017-13.498 6.138-19.415 10.848-15.417 32.205-19.167 47.677-8.417zM152.532 92.75c-28.842 0-52.386 23.333-52.386 51.917v56.001h823.622v-56.001c0-28.5-23.544-51.917-52.386-51.917h-718.851z" />
<glyph unicode="&#xe903;" glyph-name="date-and-time" d="M581.333 915.799c0 18.653 18.334 33.961 41.251 33.961s41.249-15.14 41.249-33.961v-148.391c0-18.653-18.332-33.96-41.249-33.96s-41.251 15.139-41.251 33.96v148.391zM119.75 296.89h94.499c6.001 0 10.918-4.936 10.918-10.957v-70.097c0-6.023-4.917-10.959-10.918-10.959h-94.499c-6 0-10.917 4.936-10.917 10.959v70.097c0 6.105 4.917 10.957 10.917 10.957zM481.583 496.642h94.501c2.916 0 5.499-1.171 7.5-3.013-37.083-23.253-69.251-53.535-94.751-89.084h-7.25c-6.001 0-10.916 4.936-10.916 10.957v70.097c0 6.107 4.915 11.043 10.916 11.043zM300.667 496.642h94.499c6.001 0 10.918-4.936 10.918-10.959v-70.097c0-6.023-4.917-10.957-10.918-10.957h-94.499c-6.001 0-10.916 4.934-10.916 10.957v70.097c0 6.023 4.915 10.959 10.916 10.959zM119.75 496.642h94.499c6.001 0 10.918-4.936 10.918-10.959v-70.097c0-6.023-4.917-10.957-10.918-10.957h-94.499c-6 0-10.917 4.934-10.917 10.957v70.097c0 6.023 4.917 10.959 10.917 10.959zM300.667 296.89h94.499c6.001 0 10.918-4.936 10.918-10.957v-70.097c0-6.023-4.917-10.959-10.918-10.959h-94.499c-6.001 0-10.916 4.936-10.916 10.959v70.097c0 6.105 4.915 10.957 10.916 10.957zM862.417 451.723c97.583-40.571 161.583-136.18 161.583-242.745 0-72.524-29.334-138.271-76.667-185.782s-112.751-76.956-185.084-76.956c-72.249 0-137.667 29.444-185.082 76.956-47.333 47.596-76.667 113.258-76.667 185.782 0 105.73 65.499 204.349 162.916 244.5 60.416 24.76 139 23.255 199-1.755zM722 216.003c3.25 3.598 7.25 6.693 11.583 9.036v114.262c0 11.626 9.417 21.078 21 21.078s21.084-9.452 21.084-21.078v-114.262c7.666-4.184 13.998-10.457 18.082-18.153h81.334c11.665 0 21-9.452 21-21.078s-9.417-21.080-21-21.080h-81.334c-7.5-14.051-22.166-23.589-39.166-23.589-13.332 0-25.25 5.939-33.417 15.225-15.084 17.316-14.334 43.162 0.834 59.64zM917.666 360.798c-108.415 108.825-291.248 78.043-354.666-58.972-12.999-28.189-20.333-59.642-20.333-92.766 0-60.895 24.584-116.019 64.334-155.918s94.667-64.575 155.333-64.575c60.668 0 115.583 24.76 155.333 64.575 39.752 39.899 64.334 95.023 64.334 155.918 0 34.548-7.916 67.254-22 96.362-10.75 22-25.084 38.060-42.334 55.376zM211.083 915.799c0 18.653 18.334 33.961 41.251 33.961 22.833 0 41.249-15.14 41.249-33.961v-148.391c0-18.653-18.416-33.96-41.249-33.96s-41.251 15.139-41.251 33.96v148.391zM45.417 625.291h785.084v170.808c0 5.855-2.335 10.958-6.085 14.722s-9.083 6.106-14.666 6.106h-75.25c-12.585 0-22.833 10.289-22.833 22.919s10.248 22.919 22.833 22.919h75.25c18.416 0 35-7.445 47.084-19.574s19.499-28.775 19.499-47.261v-271.269c-15 5.186-30.417 9.37-46.334 12.464v42.408h-784.582v-442.579c0-5.855 2.333-10.957 6.083-14.721s9.083-6.107 14.667-6.107h373.084c4.25-15.892 9.583-31.451 15.999-46.34h-388.667c-18.333 0-35 7.444-47.083 19.573-12.083 12.212-19.5 28.774-19.5 47.262v659.31c0 18.403 7.417 35.048 19.5 47.261 12.083 12.129 28.667 19.574 47.083 19.574h80.333c12.583 0 22.833-10.289 22.833-22.919s-10.25-22.919-22.833-22.919h-80.333c-5.833 0-10.917-2.342-14.667-6.106s-6.083-9.118-6.083-14.722v-170.892h-0.417v0.084zM359.416 817.011c-12.583 0-22.833 10.289-22.833 22.919s10.25 22.92 22.833 22.92h153.252c12.583 0 22.833-10.289 22.833-22.92s-10.25-22.919-22.833-22.919h-153.252z" />
<glyph unicode="&#xe904;" glyph-name="menus" d="M122.88 468.48h716.8v-40.96h-716.8v40.96zM983.040 611.84c11.311 0 20.48-9.169 20.48-20.48v-286.72c0-11.311-9.169-20.48-20.48-20.48h-942.080c-11.311 0-20.48 9.169-20.48 20.48v286.72c0 11.311 9.169 20.48 20.48 20.48h942.080zM61.44 570.88v-245.76h901.12v245.76h-901.12zM122.88 181.76h552.96v-40.96h-552.96v40.96zM983.040 325.12c11.311 0 20.48-9.169 20.48-20.48v-286.72c0-11.311-9.169-20.48-20.48-20.48h-942.080c-11.311 0-20.48 9.169-20.48 20.48v286.72c0 11.311 9.169 20.48 20.48 20.48h942.080zM61.44 284.16v-245.76h901.12v245.76h-901.12zM614.4 898.56c11.311 0 20.48-9.169 20.48-20.48v-204.8c0-11.311-9.169-20.48-20.48-20.48h-573.44c-11.311 0-20.48 9.169-20.48 20.48v204.8c0 11.311 9.169 20.48 20.48 20.48h573.44zM61.44 857.6v-163.84h532.48v163.84h-532.48zM506.218 751.565l-36.833 42.102c-4.348 4.953-0.815 12.733 5.784 12.733h73.667c1.477 0.001 2.92-0.423 4.164-1.222 1.241-0.799 2.226-1.939 2.836-3.284s0.819-2.836 0.604-4.297c-0.217-1.46-0.85-2.828-1.823-3.939l-36.833-42.086c-0.721-0.825-1.61-1.487-2.607-1.939s-2.079-0.688-3.174-0.688c-1.096 0-2.179 0.236-3.176 0.688s-1.886 1.114-2.607 1.939v-0.008z" />
<glyph unicode="&#xe905;" glyph-name="search" d="M1003.52 919.040c11.311 0 20.48-9.169 20.48-20.48v-901.12c0-11.311-9.169-20.48-20.48-20.48h-983.040c-11.311 0-20.48 9.169-20.48 20.48v901.12c0 11.311 9.169 20.48 20.48 20.48h983.040zM40.96 878.080v-860.16h942.080v860.16h-942.080zM669.458 400.028c0-42.222-13.709-81.224-36.801-112.867l116.476-116.548c11.502-11.497 11.502-30.171 0-41.669-11.5-11.5-30.177-11.5-41.677 0l-116.478 116.546c-31.65-23.179-70.66-36.794-112.89-36.794-105.714 0-191.369 85.641-191.369 191.332 0 105.693 85.656 191.332 191.369 191.332s191.369-85.639 191.369-191.332zM478.089 267.567c17.398 0 34.626 3.426 50.7 10.082 16.075 6.658 30.679 16.415 42.981 28.715s22.061 26.903 28.719 42.973c6.658 16.071 10.086 33.296 10.086 50.69 0 17.396-3.428 34.619-10.086 50.69s-16.417 30.675-28.719 42.973c-12.302 12.3-26.907 22.059-42.981 28.715s-33.303 10.082-50.7 10.082c-17.398 0-34.626-3.426-50.7-10.082s-30.679-16.415-42.981-28.715c-12.302-12.298-22.061-26.903-28.719-42.973s-10.086-33.294-10.086-50.69c0-17.394 3.428-34.619 10.086-50.69s16.417-30.673 28.719-42.973c12.302-12.3 26.907-22.057 42.981-28.715 16.075-6.656 33.303-10.082 50.7-10.082zM40.96 734.72h962.56v-40.96h-962.56v40.96zM163.84 806.4c0-16.966-13.754-30.72-30.72-30.72s-30.72 13.754-30.72 30.72c0 16.966 13.754 30.72 30.72 30.72s30.72-13.754 30.72-30.72zM286.72 806.4c0-16.966-13.754-30.72-30.72-30.72s-30.72 13.754-30.72 30.72c0 16.966 13.754 30.72 30.72 30.72s30.72-13.754 30.72-30.72zM409.6 806.4c0-16.966-13.754-30.72-30.72-30.72s-30.72 13.754-30.72 30.72c0 16.966 13.754 30.72 30.72 30.72s30.72-13.754 30.72-30.72z" />
<glyph unicode="&#xe906;" glyph-name="light-dark-toggle" d="M798.72 673.28c124.418 0 225.28-100.862 225.28-225.28s-100.862-225.28-225.28-225.28h-573.44c-124.419 0-225.28 100.862-225.28 225.28s100.861 225.28 225.28 225.28h573.44zM225.28 632.32c-101.797 0-184.32-82.522-184.32-184.32s82.523-184.32 184.32-184.32h573.44c101.798 0 184.32 82.522 184.32 184.32s-82.522 184.32-184.32 184.32h-573.44zM225.28 673.28c124.418 0 225.28-100.862 225.28-225.28s-100.862-225.28-225.28-225.28c-124.419 0-225.28 100.862-225.28 225.28s100.861 225.28 225.28 225.28zM204.8 284.16h40.96v81.92h-40.96v-81.92zM102.42 349.121l28.96-28.961 57.92 57.919-28.96 28.961-57.92-57.919zM261.28 378.079l57.919-57.919 28.961 28.961-57.919 57.919-28.961-28.961zM225.28 488.96c-22.622 0-40.96-18.338-40.96-40.96s18.338-40.96 40.96-40.96c22.622 0 40.96 18.338 40.96 40.96s-18.338 40.96-40.96 40.96zM61.44 427.52h81.92v40.96h-81.92v-40.96zM307.2 427.52h81.92v40.96h-81.92v-40.96zM93.92 544.399l57.92-57.919 28.96 28.961-57.92 57.919-28.96-28.961zM269.761 515.441l28.959-28.961 57.922 57.919-28.961 28.961-57.919-57.919zM204.8 611.84v-81.92h40.96v81.92h-40.96z" />
<glyph unicode="&#xe907;" glyph-name="copyright" d="M522.24 939.52c277.115 0 501.76-224.645 501.76-501.76s-224.645-501.76-501.76-501.76c-277.115 0-501.76 224.645-501.76 501.76s224.645 501.76 501.76 501.76zM522.24 898.56c-254.493 0-460.8-206.307-460.8-460.8s206.307-460.8 460.8-460.8c254.493 0 460.8 206.307 460.8 460.8s-206.307 460.8-460.8 460.8zM248.832 442.88c0 58.026 11.606 108.544 34.816 151.552 23.21 43.69 55.296 77.482 96.256 101.376 41.642 23.894 89.088 35.84 142.336 35.84 68.95 0 125.61-16.726 169.984-50.176 45.056-33.45 74.752-79.872 89.088-139.264h-100.352c-9.558 34.134-28.33 61.098-56.32 80.896-27.306 19.798-61.44 29.696-102.4 29.696-53.248 0-96.256-18.432-129.024-55.296-32.768-36.182-49.152-87.722-49.152-154.624 0-67.584 16.384-119.808 49.152-156.672s75.776-55.296 129.024-55.296c40.96 0 75.094 9.558 102.4 28.672s46.080 46.422 56.32 81.92h100.352c-15.018-57.344-45.056-103.424-90.112-138.24-45.056-34.134-101.376-51.2-168.96-51.2-53.248 0-100.694 11.946-142.336 35.84-40.96 23.894-73.046 57.686-96.256 101.376s-34.816 94.89-34.816 153.6z" />
<glyph unicode="&#xe908;" glyph-name="site-tagline" d="M883.2 838.297c15.956 0 31.257-6.349 42.539-17.651s17.621-26.63 17.621-42.613v-482.106c0-15.983-6.339-31.312-17.621-42.613-11.282-11.303-26.583-17.652-42.539-17.652h-576.694c-31.908-0.006-62.507-12.71-85.066-35.314l-120.32-120.527v698.211c0 15.983 6.338 31.311 17.62 42.613s26.584 17.651 42.54 17.651h721.92zM161.28 898.56c-31.911 0-62.515-12.698-85.079-35.301s-35.241-53.259-35.241-85.225v-770.947c0.001-5.964 1.768-11.79 5.077-16.746s8.011-8.817 13.512-11.094c5.501-2.277 11.552-2.869 17.388-1.7 5.836 1.167 11.195 4.045 15.399 8.266l171.636 171.932c11.28 11.303 26.579 17.654 42.533 17.658h576.694c31.91 0 62.515 12.698 85.080 35.301 22.563 22.604 35.24 53.258 35.24 85.225v482.106c0 31.966-12.677 62.622-35.24 85.225-22.565 22.603-53.17 35.301-85.080 35.301h-721.92zM313.551 374.792v-29.192h272.869v29.192h-272.869zM313.551 484.252v-29.19h218.929v29.19h-218.929zM313.551 593.721v-29.19h287.146v29.19h-287.146zM313.551 703.183v-29.19h182.442v29.19h-182.442zM535.65 703.185v-29.19h103.119v29.19h-103.119zM654.371 377.166l-55.914-44.958 6.005 71.494 49.91-26.536zM825.188 698.429l-49.904 26.536-170.822-321.27 49.904-26.534 170.822 321.268zM805.736 755.481c-2.941 1.563-6.597 1.493-10.16-0.193-3.566-1.69-6.754-4.862-8.856-8.815l-5.343-10.047 49.906-26.536 5.341 10.050c2.103 3.953 2.951 8.368 2.357 12.27-0.594 3.899-2.58 6.967-5.521 8.53l-27.724 14.742z" />
<glyph unicode="&#xe909;" glyph-name="site-title" d="M1003.52 919.040c11.311 0 20.48-9.169 20.48-20.48v-901.12c0-11.311-9.169-20.48-20.48-20.48h-983.040c-11.311 0-20.48 9.169-20.48 20.48v901.12c0 11.311 9.169 20.48 20.48 20.48h983.040zM40.96 878.080v-860.16h942.080v860.16h-942.080zM581.28 93.68v-34.8h-178.399v34.8l65.2 5.2v503.2h-163.6l-5.2-88.799h-39.201v128h463.6v-128h-38.799l-5.599 88.799h-163.201v-503.2l65.2-5.2zM40.96 755.2h962.56v-40.96h-962.56v40.96z" />
<glyph unicode="&#xe90a;" glyph-name="logo" d="M1003.52 919.040c11.311 0 20.48-9.169 20.48-20.48v-901.12c0-11.311-9.169-20.48-20.48-20.48h-983.040c-11.311 0-20.48 9.169-20.48 20.48v901.12c0 11.311 9.169 20.48 20.48 20.48h983.040zM40.96 878.080v-860.16h942.080v860.16h-942.080zM40.96 734.72h962.56v-40.96h-962.56v40.96zM163.84 806.4c0-16.966-13.754-30.72-30.72-30.72s-30.72 13.754-30.72 30.72c0 16.966 13.754 30.72 30.72 30.72s30.72-13.754 30.72-30.72zM286.72 806.4c0-16.966-13.754-30.72-30.72-30.72s-30.72 13.754-30.72 30.72c0 16.966 13.754 30.72 30.72 30.72s30.72-13.754 30.72-30.72zM409.6 806.4c0-16.966-13.754-30.72-30.72-30.72s-30.72 13.754-30.72 30.72c0 16.966 13.754 30.72 30.72 30.72s30.72-13.754 30.72-30.72zM512 642.56c158.351 0 286.72-128.369 286.72-286.72s-128.369-286.72-286.72-286.72c-158.351 0-286.72 128.369-286.72 286.72s128.369 286.72 286.72 286.72zM512 611.84c-141.386 0-256-114.614-256-256s114.614-256 256-256c141.386 0 256 114.614 256 256s-114.614 256-256 256zM326.861 316.191h54.231v-21.791h-82.412v108.134h28.18v-86.344zM442.216 404.173c10.924 0 20.316-2.238 28.18-6.717 7.975-4.368 14.090-10.705 18.35-19.005s6.39-18.295 6.39-29.983c0-11.688-2.13-21.682-6.39-29.983s-10.375-14.69-18.35-19.169c-7.864-4.368-17.256-6.554-28.18-6.554-10.922 0-20.369 2.185-28.344 6.554-7.973 4.479-14.090 10.869-18.35 19.169s-6.39 18.295-6.39 29.983c0 11.688 2.13 21.682 6.39 29.983s10.377 14.637 18.35 19.005c7.975 4.479 17.422 6.717 28.344 6.717zM442.216 382.054c-5.243 0-9.667-1.255-13.271-3.768s-6.334-6.281-8.192-11.305c-1.855-4.915-2.785-11.086-2.785-18.514 0-7.318 0.93-13.49 2.785-18.514 1.858-5.024 4.588-8.792 8.192-11.305s8.028-3.768 13.271-3.768c5.243 0 9.613 1.255 13.107 3.768 3.604 2.513 6.337 6.281 8.192 11.305 1.858 5.024 2.785 11.196 2.785 18.514 0 7.428-0.928 13.599-2.785 18.514-1.855 5.024-4.588 8.792-8.192 11.305-3.494 2.513-7.864 3.768-13.107 3.768zM559.249 292.762c-9.613 0-18.186 2.13-25.723 6.39-7.428 4.26-13.218 10.541-17.367 18.842-4.151 8.301-6.226 18.405-6.226 30.31 0 11.688 2.183 21.682 6.554 29.983 4.368 8.301 10.594 14.69 18.678 19.169 8.192 4.479 17.803 6.717 28.836 6.717 12.233 0 22.118-2.238 29.655-6.717 7.537-4.368 13.38-11.36 17.531-20.972l-26.051-10.322c-1.421 5.571-3.932 9.611-7.537 12.124s-8.083 3.768-13.435 3.768c-5.353 0-9.941-1.311-13.763-3.932-3.824-2.513-6.717-6.281-8.684-11.305-1.966-4.915-2.949-11.033-2.949-18.35 0-7.645 0.983-14.035 2.949-19.169 2.075-5.134 5.079-8.956 9.011-11.469 4.041-2.402 9.011-3.604 14.909-3.604 3.166 0 6.062 0.383 8.684 1.147s4.915 1.858 6.881 3.277c1.966 1.53 3.494 3.385 4.588 5.571 1.092 2.294 1.638 4.97 1.638 8.028v1.638h-24.74v18.842h48.66v-58.327h-19.169l-2.13 25.395 4.588-3.932c-2.294-7.428-6.445-13.162-12.452-17.203-5.898-3.932-13.545-5.898-22.938-5.898zM681.417 404.173c10.922 0 20.316-2.238 28.18-6.717 7.973-4.368 14.090-10.705 18.35-19.005s6.39-18.295 6.39-29.983c0-11.688-2.13-21.682-6.39-29.983s-10.377-14.69-18.35-19.169c-7.864-4.368-17.258-6.554-28.18-6.554s-20.371 2.185-28.344 6.554c-7.973 4.479-14.090 10.869-18.35 19.169s-6.39 18.295-6.39 29.983c0 11.688 2.13 21.682 6.39 29.983s10.377 14.637 18.35 19.005c7.973 4.479 17.422 6.717 28.344 6.717zM681.417 382.054c-5.243 0-9.667-1.255-13.271-3.768s-6.334-6.281-8.192-11.305c-1.858-4.915-2.785-11.086-2.785-18.514 0-7.318 0.928-13.49 2.785-18.514s4.588-8.792 8.192-11.305c3.604-2.513 8.028-3.768 13.271-3.768s9.611 1.255 13.107 3.768c3.604 2.513 6.334 6.281 8.192 11.305s2.785 11.196 2.785 18.514c0 7.428-0.928 13.599-2.785 18.514-1.858 5.024-4.588 8.792-8.192 11.305-3.496 2.513-7.864 3.768-13.107 3.768z" />
<glyph unicode="&#xe90b;" glyph-name="post-comments" d="M368.679 919.040c-169.657 0-307.159-110.656-307.159-247.222 0-56.576 23.877-108.399 63.472-150.116-17.878-46.83-55.073-86.528-55.673-87.005-7.919-8.319-10.079-20.443-5.519-30.902s14.998-17.234 26.517-17.234c73.79 0 131.982 30.546 166.898 55.032 34.675-10.818 72.11-16.998 111.464-16.998 169.658 0 307.161 110.658 307.161 247.224s-137.503 247.222-307.161 247.222zM368.679 481.647c-32.035 0-63.711 4.872-94.067 14.381l-27.236 8.557-23.396-16.4c-17.158-12.005-40.676-25.436-68.992-34.47 8.759 14.381 17.278 30.546 23.877 47.782l12.718 33.399-24.717 25.909c-21.717 22.94-47.754 60.856-47.754 111.014 0 104.831 111.945 190.171 249.567 190.171 137.624 0 249.569-85.34 249.569-190.171 0-104.833-111.946-190.171-249.569-190.171zM573.44 652.8c214.927 0 389.12-136.192 389.12-304.273 0-72.559-32.528-138.973-86.641-191.197 19.001-73.728 82.536-139.409 83.296-140.141 3.344-3.365 4.256-8.339 2.279-12.726-1.974-4.389-6.23-7.023-11.096-7.023-100.776 0-176.318 46.518-213.711 75.19-49.705-17.992-104.88-28.379-163.248-28.379-214.927 0-389.12 136.192-389.12 304.275 0 168.081 174.193 304.273 389.12 304.273zM768 301.713c26.905 0 48.64 20.92 48.64 46.813 0 25.891-21.735 46.811-48.64 46.811s-48.64-20.92-48.64-46.811c0-25.893 21.735-46.813 48.64-46.813zM573.44 301.713c26.905 0 48.64 20.92 48.64 46.813 0 25.891-21.735 46.811-48.64 46.811s-48.64-20.92-48.64-46.811c0-25.893 21.735-46.813 48.64-46.813zM378.88 301.713c26.905 0 48.64 20.92 48.64 46.813 0 25.891-21.735 46.811-48.64 46.811s-48.64-20.92-48.64-46.811c0-25.893 21.735-46.813 48.64-46.813z" />
<glyph unicode="&#xe90c;" glyph-name="post-author" d="M491.52 591.36h389.12v-61.44h-389.12v61.44zM491.52 366.080h266.24v-40.96h-266.24v40.96zM491.52 468.48h532.48v-40.96h-532.48v40.96zM204.8 448c64.639 0 117.029 55.007 117.029 122.88s-52.39 122.88-117.029 122.88c-64.64 0-117.029-55.007-117.029-122.88s52.389-122.88 117.029-122.88zM286.72 417.28h-15.268c-20.298-9.791-42.881-15.36-66.652-15.36s-46.263 5.569-66.651 15.36h-15.269c-67.84 0-122.88-57.793-122.88-129.024v-39.936c0-25.44 19.657-46.080 43.886-46.080h321.828c24.23 0 43.887 20.64 43.887 46.080v39.936c0 71.231-55.040 129.024-122.88 129.024z" />
<glyph unicode="&#xe90d;" glyph-name="related-post" d="M942.080 181.76h-163.84v40.96h122.88v450.56h-655.36v204.8h696.32v-696.32zM286.72 837.12v-122.88h614.4v122.88h-614.4zM778.24 17.92h-696.32v696.32h696.32v-696.32zM122.88 58.88h614.4v450.56h-614.4v-450.56zM122.88 673.28v-122.88h614.4v122.88h-614.4zM204.8 611.84c0-11.311-9.169-20.48-20.48-20.48s-20.48 9.169-20.48 20.48c0 11.311 9.169 20.48 20.48 20.48s20.48-9.169 20.48-20.48zM286.72 611.84c0-11.311-9.169-20.48-20.48-20.48s-20.48 9.169-20.48 20.48c0 11.311 9.169 20.48 20.48 20.48s20.48-9.169 20.48-20.48zM368.64 611.84c0-11.311-9.169-20.48-20.48-20.48s-20.48 9.169-20.48 20.48c0 11.311 9.169 20.48 20.48 20.48s20.48-9.169 20.48-20.48zM368.64 775.68c0-11.311-9.169-20.48-20.48-20.48s-20.48 9.169-20.48 20.48c0 11.311 9.169 20.48 20.48 20.48s20.48-9.169 20.48-20.48zM450.56 775.68c0-11.311-9.169-20.48-20.48-20.48s-20.48 9.169-20.48 20.48c0 11.311 9.169 20.48 20.48 20.48s20.48-9.169 20.48-20.48zM532.48 775.68c0-11.311-9.169-20.48-20.48-20.48s-20.48 9.169-20.48 20.48c0 11.311 9.169 20.48 20.48 20.48s20.48-9.169 20.48-20.48zM163.84 181.76h327.68v-20.48h-327.68v20.48zM163.84 263.68h409.6v-20.48h-409.6v20.48zM163.84 345.6h491.52v-20.48h-491.52v20.48zM163.84 427.52h327.68v-20.48h-327.68v20.48z" />
<glyph unicode="&#xe90e;" glyph-name="post-share-icon" d="M793.602 806.391c-20.367 0-39.903-8.090-54.305-22.491-14.404-14.401-22.493-33.933-22.493-54.298s8.090-39.897 22.493-54.299c14.402-14.402 33.937-22.491 54.305-22.491s39.903 8.090 54.305 22.491c14.404 14.402 22.493 33.933 22.493 54.299s-8.090 39.897-22.493 54.298c-14.402 14.401-33.937 22.491-54.305 22.491zM665.604 729.602c-0.004 30.028 10.553 59.101 29.823 82.133 19.268 23.032 46.025 38.556 75.583 43.856 29.561 5.3 60.043 0.038 86.116-14.865 26.071-14.903 46.074-38.497 56.504-66.656s10.627-59.089 0.555-87.376c-10.072-28.289-29.772-52.136-55.652-67.369-25.883-15.233-56.295-20.881-85.92-15.958-29.626 4.925-56.576 20.107-76.136 42.893l-343.955-159.721c7.903-25.057 7.903-51.939 0-76.995l343.955-159.721c20.677 24.044 49.543 39.555 81.007 43.53 31.463 3.977 63.283-3.869 89.291-22.014s44.354-45.298 51.481-76.198c7.127-30.898 2.527-63.343-12.906-91.044s-40.604-48.687-70.629-58.89c-30.028-10.203-62.773-8.899-91.894 3.662-29.118 12.562-52.537 35.484-65.716 64.326s-15.182 61.549-5.618 91.783l-343.955 159.721c-17.027-19.841-39.723-33.993-65.034-40.548-25.311-6.558-52.025-5.208-76.545 3.869-24.521 9.079-45.673 25.446-60.611 46.903s-22.946 46.975-22.946 73.118c0 26.145 8.008 51.661 22.946 73.118s36.090 37.827 60.611 46.903c24.52 9.077 51.234 10.428 76.545 3.871s48.007-20.709 65.034-40.55l343.955 159.724c-3.916 12.456-5.9 25.438-5.888 38.496zM230.412 524.831c-20.369 0-39.903-8.090-54.306-22.491s-22.494-33.933-22.494-54.299c0-20.365 8.091-39.897 22.494-54.299 14.403-14.399 33.936-22.491 54.306-22.491 20.367 0 39.901 8.092 54.305 22.491 14.402 14.402 22.493 33.933 22.493 54.299s-8.092 39.897-22.493 54.299c-14.404 14.402-33.937 22.491-54.305 22.491zM793.602 243.27c-20.367 0-39.903-8.090-54.305-22.491-14.404-14.399-22.493-33.931-22.493-54.299 0-20.365 8.090-39.897 22.493-54.297 14.402-14.402 33.937-22.491 54.305-22.491s39.903 8.090 54.305 22.491c14.404 14.399 22.493 33.931 22.493 54.297s-8.090 39.899-22.493 54.299c-14.402 14.402-33.937 22.491-54.305 22.491z" />
<glyph unicode="&#xe90f;" glyph-name="post-pagination" d="M798.72 673.28c-124.418 0-225.28-100.862-225.28-225.28s100.862-225.28 225.28-225.28c124.418 0 225.28 100.862 225.28 225.28s-100.862 225.28-225.28 225.28zM901.12 448l-153.6-88.68v177.361l153.6-88.68zM225.28 673.28c124.418 0 225.28-100.862 225.28-225.28s-100.862-225.28-225.28-225.28c-124.419 0-225.28 100.862-225.28 225.28s100.861 225.28 225.28 225.28zM122.88 448l153.6-88.68v177.361l-153.6-88.68z" />
<glyph unicode="&#xe910;" glyph-name="advanced-post-meta" d="M838.646 143.208c21.002-19.040-199.461 76.163-157.475 238.008h199.469c-115.483-19.040-88.949-195.439-41.994-238.008zM783.579 755.2c132.78 0 240.421-107.641 240.421-240.421 0-132.778-107.643-240.419-240.421-240.419h-543.158c-132.779 0-240.42 107.641-240.421 240.419 0 132.78 107.641 240.421 240.421 240.421h543.158zM215.040 568.199c-28.277 0-51.2-22.921-51.2-51.2v-31.158c0.003-28.275 22.925-51.2 51.2-51.2s51.198 22.925 51.2 51.2v31.158c0 28.279-22.923 51.2-51.2 51.2zM501.76 568.199c-28.277 0-51.2-22.921-51.2-51.2v-31.158c0.002-28.275 22.925-51.2 51.2-51.2s51.198 22.925 51.2 51.2v31.158c0 28.279-22.923 51.2-51.2 51.2zM788.48 568.199c-28.277 0-51.2-22.921-51.2-51.2v-31.158c0.002-28.275 22.925-51.2 51.2-51.2s51.198 22.925 51.2 51.2v31.158c0 28.279-22.923 51.2-51.2 51.2z" />
<glyph unicode="&#xe911;" glyph-name="post-featured-image" d="M133.12 140.8l134.052 204.8 134.050-204.8 268.102 409.6 201.077-409.6h-737.28zM276.48 529.92c33.933 0 61.44 27.507 61.44 61.44s-27.507 61.44-61.44 61.44c-33.933 0-61.44-27.507-61.44-61.44s27.507-61.44 61.44-61.44zM972.8 857.6c22.622 0 40.96-18.338 40.96-40.96v-675.84c0-22.622-18.338-40.96-40.96-40.96h-901.12c-22.622 0-40.96 18.338-40.96 40.96v675.84c0 22.622 18.338 40.96 40.96 40.96h901.12zM112.64 816.64c-22.622 0-40.96-18.338-40.96-40.96v-593.92c0-22.622 18.338-40.96 40.96-40.96h819.2c22.622 0 40.96 18.338 40.96 40.96v593.92c0 22.622-18.338 40.96-40.96 40.96h-819.2z" />
<glyph unicode="&#xe912;" glyph-name="post-tag" d="M512 960c282.769 0 512-229.231 512-512s-229.231-512-512-512c-282.769 0-512 229.231-512 512s229.231 512 512 512zM512 919.040c-260.147 0-471.040-210.893-471.040-471.040s210.893-471.040 471.040-471.040c260.147 0 471.040 210.893 471.040 471.040s-210.893 471.040-471.040 471.040zM508.559 673.28c5.558 0.002 11.067-1.092 16.2-3.219 5.134-2.132 9.798-5.265 13.722-9.2l186.46-186.401c16.454-16.548 16.454-43.303 0-59.761l-179.601-179.64c-16.542-16.456-43.284-16.456-59.74 0l-186.479 186.501c-7.926 7.907-12.38 18.645-12.401 29.839v179.64c0.004 23.321 18.924 42.24 42.24 42.24h179.599zM492.54 427.78c-8.796 8.796-23.063 8.794-31.861 0l-3.539-3.541c-8.798-8.796-8.798-23.060 0-31.859l74.34-74.34c8.798-8.796 23.063-8.796 31.859 0l3.541 3.539c8.792 8.798 8.794 23.065 0 31.861l-74.34 74.34zM542.599 527.901c-8.796 8.796-23.060 8.796-31.859 0l-3.541-3.541c-8.798-8.798-8.798-23.063 0-31.859l109.74-109.74c8.798-8.796 23.065-8.798 31.861 0l3.539 3.539c8.796 8.796 8.794 23.063 0 31.861l-109.74 109.74zM385.28 616.94c-23.319 0-42.24-18.915-42.24-42.24 0.002-23.321 18.921-42.24 42.24-42.24 23.316 0.002 42.238 18.919 42.24 42.24 0 23.323-18.921 42.24-42.24 42.24z" />
<glyph unicode="&#xe913;" glyph-name="post-categories" d="M1003.52 243.2h-204.8c-11.311 0-20.48-9.169-20.48-20.48v-61.44c0-11.311 9.169-20.48 20.48-20.48h204.8c11.311 0 20.48 9.169 20.48 20.48v61.44c0 11.311-9.169 20.48-20.48 20.48zM614.4 243.2h-204.8c-11.311 0-20.48-9.169-20.48-20.48v-61.44c0-11.311 9.169-20.48 20.48-20.48h204.8c11.311 0 20.48 9.169 20.48 20.48v61.44c0 11.311-9.169 20.48-20.48 20.48zM225.28 243.2h-204.8c-11.311 0-20.48-9.169-20.48-20.48v-61.44c0-11.311 9.169-20.48 20.48-20.48h204.8c11.311 0 20.48 9.169 20.48 20.48v61.44c0 11.311-9.169 20.48-20.48 20.48zM532.48 755.2h-40.96v-532.48h40.96v532.48zM40.96 488.96c0 56.553 45.846 102.4 102.4 102.4h716.8c56.553 0 102.4-45.847 102.4-102.4h-81.92c0 11.311-9.169 20.48-20.48 20.48h-716.8c-11.311 0-20.48-9.169-20.48-20.48h-81.92zM40.96 181.76v307.2c0 56.553 45.846 102.4 102.4 102.4v-81.92c-11.311 0-20.48-9.169-20.48-20.48v-307.2h-81.92zM860.16 591.36c56.553 0 102.4-45.847 102.4-102.4v-307.2h-81.92v307.2c0 11.311-9.169 20.48-20.48 20.48v81.92z" />
<glyph unicode="&#xe914;" glyph-name="archive-description" d="M1024 448c0-282.769-229.231-512-512-512s-512 229.231-512 512c0 282.769 229.231 512 512 512s512-229.231 512-512zM512 919.040c-260.147 0-471.040-210.893-471.040-471.040s210.893-471.040 471.040-471.040c260.147 0 471.040 210.893 471.040 471.040s-210.893 471.040-471.040 471.040zM225.28 202.24v-40.96h389.12v40.96h-389.12zM225.28 366.080v-40.96h614.4v40.96h-614.4zM532.48 529.92v-40.96h286.72v40.96h-286.72zM512 693.76v-40.96h307.2v40.96h-307.2zM414.45 564.617v42.263h-150.17v-42.263h150.17zM361.099 738.806c4.504 10.441-0.221 22.751-10.551 27.497-10.332 4.747-22.36 0.131-26.864-10.308l-118.898-275.563c-4.504-10.441 0.221-22.751 10.551-27.498 10.332-4.747 22.36-0.131 26.864 10.308l118.899 275.565zM364.46 756.023c-4.504 10.44-16.531 15.055-26.864 10.308-10.33-4.747-15.055-17.058-10.551-27.497l118.899-275.565c4.504-10.439 16.531-15.055 26.864-10.308s15.055 17.058 10.551 27.496l-118.899 275.564z" />
<glyph unicode="&#xe915;" glyph-name="archive-title" d="M512 960c282.769 0 512-229.231 512-512s-229.231-512-512-512c-282.769 0-512 229.231-512 512s229.231 512 512 512zM286.72 99.84h450.56v40.96h-450.56v-40.96zM163.84 202.24h696.32v40.96h-696.32v-40.96zM507.66 785.88c-12.612 1.155-25-5.744-30.341-18.12l-178.358-413.401c-6.752-15.657 0.326-34.118 15.819-41.239 15.499-7.121 33.542-0.199 40.301 15.458l65.62 152.080h174.44l65.599-152.039c6.758-15.659 24.801-22.579 40.301-15.46 15.499 7.121 22.598 25.6 15.839 41.261l-178.381 413.379c-5.411 12.542-18.055 19.471-30.839 18.080zM567.779 544.059h-119.72l59.861 138.76 59.859-138.76z" />
<glyph unicode="&#xe916;" glyph-name="post-description" d="M1003.52 919.040c11.311 0 20.48-9.169 20.48-20.48v-901.12c0-11.311-9.169-20.48-20.48-20.48h-983.040c-11.311 0-20.48 9.169-20.48 20.48v901.12c0 11.311 9.169 20.48 20.48 20.48h983.040zM61.44 878.080c-11.311 0-20.48-9.169-20.48-20.48v-819.2c0-11.311 9.169-20.48 20.48-20.48h901.12c11.311 0 20.48 9.169 20.48 20.48v819.2c0 11.311-9.169 20.48-20.48 20.48h-901.12zM163.84 243.2v-40.96h462.451v40.96h-462.451zM163.84 386.56v-40.96h716.8v40.96h-716.8zM163.84 529.92v-40.96h624.31v40.96h-624.31zM163.84 693.76v-40.96h508.697v40.96h-508.697z" />
<glyph unicode="&#xe917;" glyph-name="post-title" d="M512 960c282.769 0 512-229.231 512-512s-229.231-512-512-512c-282.769 0-512 229.231-512 512s229.231 512 512 512zM286.72 714.24v-61.44h204.8v-491.52h61.44v491.52h204.8v61.44h-471.040z" />
<glyph unicode="&#xe918;" glyph-name="template" d="M1003.52 919.040c11.311 0 20.48-9.169 20.48-20.48v-901.12c0-11.311-9.169-20.48-20.48-20.48h-983.040c-11.311 0-20.48 9.169-20.48 20.48v901.12c0 11.311 9.169 20.48 20.48 20.48h983.040zM40.96 878.080v-860.16h942.080v860.16h-942.080zM40.96 734.72h962.56v-40.96h-962.56v40.96zM368.64 693.76h40.96v-675.84h-40.96v675.84zM163.84 806.4c0-16.966-13.754-30.72-30.72-30.72s-30.72 13.754-30.72 30.72c0 16.966 13.754 30.72 30.72 30.72s30.72-13.754 30.72-30.72zM286.72 806.4c0-16.966-13.754-30.72-30.72-30.72s-30.72 13.754-30.72 30.72c0 16.966 13.754 30.72 30.72 30.72s30.72-13.754 30.72-30.72zM409.6 806.4c0-16.966-13.754-30.72-30.72-30.72s-30.72 13.754-30.72 30.72c0 16.966 13.754 30.72 30.72 30.72s30.72-13.754 30.72-30.72z" />
<glyph unicode="&#xe919;" glyph-name="offcanvas" d="M1003.52 919.040c11.311 0 20.48-9.169 20.48-20.48v-901.12c0-11.311-9.169-20.48-20.48-20.48h-983.040c-11.311 0-20.48 9.169-20.48 20.48v901.12c0 11.311 9.169 20.48 20.48 20.48h983.040zM40.96 878.080v-860.16h942.080v860.16h-942.080zM655.36 796.16h225.28c11.311 0 20.48-9.169 20.48-20.48v-655.36c0-11.311-9.169-20.48-20.48-20.48h-225.28c-11.311 0-20.48 9.169-20.48 20.48v655.36c0 11.311 9.169 20.48 20.48 20.48z" />
<glyph unicode="&#xe91a;" glyph-name="featured-list" d="M266.24-23.040h122.88v-20.48h-122.88v20.48zM266.24 79.36h614.4v-40.96h-614.4v40.96zM40.96-23.040l22.342 40.96 22.342-40.96 44.684 81.92 33.513-81.92h-122.88zM186.42 99.74c10.325-1.051 18.38-9.777 18.38-20.38v-122.88c0-10.602-8.055-19.329-18.38-20.38l-2.1-0.1h-163.84c-11.311 0-20.48 9.169-20.48 20.48v122.88c0 11.311 9.169 20.48 20.48 20.48l165.94-0.1zM20.48 79.36v-122.88h163.84v122.88h-163.84zM266.24 222.72h122.88v-20.48h-122.88v20.48zM266.24 325.12h614.4v-40.96h-614.4v40.96zM184.32 345.6c11.311 0 20.48-9.169 20.48-20.48v-122.88c0-11.311-9.169-20.48-20.48-20.48h-163.84c-11.311 0-20.48 9.169-20.48 20.48v122.88c0 11.311 9.169 20.48 20.48 20.48h163.84zM20.48 325.12v-122.88h163.84v122.88h-163.84zM40.96 222.72l22.342 40.96 22.342-40.96 44.684 81.92 33.513-81.92h-122.88zM983.040 960c22.622 0 40.96-18.338 40.96-40.96v-430.080c0-22.622-18.338-40.96-40.96-40.96h-942.080c-22.622 0-40.96 18.338-40.96 40.96v430.080c0 22.622 18.338 40.96 40.96 40.96h942.080zM122.88 570.88h634.88v40.96h-634.88v-40.96zM122.88 734.72v-40.96h122.88v40.96h-122.88zM307.2 693.76h122.88v40.96h-122.88v-40.96z" />
<glyph unicode="&#xe91b;" glyph-name="express-post" d="M737.28 161.28h286.72v-40.96h-286.72v40.96zM737.28 243.2h61.44v-20.48h-61.44v20.48zM573.44 140.8l14.895 30.72 14.893-30.72 29.79 61.44 22.342-61.44h-81.92zM675.84 263.68c11.311 0 20.48-9.169 20.48-20.48v-122.88c0-11.311-9.169-20.48-20.48-20.48h-122.88c-11.311 0-20.48 9.169-20.48 20.48v122.88c0 11.311 9.169 20.48 20.48 20.48h122.88zM552.96 243.2v-122.88h122.88v122.88h-122.88zM737.28 427.52h286.72v-40.96h-286.72v40.96zM737.28 509.44h61.44v-20.48h-61.44v20.48zM573.44 407.040l14.895 30.72 14.893-30.72 29.79 61.44 22.342-61.44h-81.92zM675.84 529.92c11.311 0 20.48-9.169 20.48-20.48v-122.88c0-11.311-9.169-20.48-20.48-20.48h-122.88c-11.311 0-20.48 9.169-20.48 20.48v122.88c0 11.311 9.169 20.48 20.48 20.48h122.88zM552.96 509.44v-122.88h122.88v122.88h-122.88zM737.28 693.76h286.72v-40.96h-286.72v40.96zM737.28 775.68h61.44v-20.48h-61.44v20.48zM675.84 796.16c11.311 0 20.48-9.169 20.48-20.48v-122.88c0-11.311-9.169-20.48-20.48-20.48h-122.88c-11.311 0-20.48 9.169-20.48 20.48v122.88c0 11.311 9.169 20.48 20.48 20.48h122.88zM552.96 775.68v-122.88h122.88v122.88h-122.88zM573.44 673.28l14.895 30.72 14.893-30.72 29.79 61.44 22.342-61.44h-81.92zM450.56 796.16c11.311 0 20.48-9.169 20.48-20.48v-655.36c0-11.311-9.169-20.48-20.48-20.48h-430.080c-11.311 0-20.48 9.169-20.48 20.48v655.36c0 11.311 9.169 20.48 20.48 20.48h430.080zM81.92 202.24h286.72v40.96h-286.72v-40.96zM81.92 366.080v-40.96h81.92v40.96h-81.92zM204.8 325.12h81.92v40.96h-81.92v-40.96z" />
<glyph unicode="&#xe91c;" glyph-name="featured-post" d="M737.28 181.76h102.4v-20.48h-102.4v20.48zM737.28 263.68h286.72v-40.96h-286.72v40.96zM573.44 161.28l14.895 30.72 14.893-30.72 29.79 61.44 22.342-61.44h-81.92zM675.84 284.16c11.311 0 20.48-9.169 20.48-20.48v-122.88c0-11.311-9.169-20.48-20.48-20.48h-122.88c-11.311 0-20.48 9.169-20.48 20.48v122.88c0 11.311 9.169 20.48 20.48 20.48h122.88zM552.96 263.68v-122.88h122.88v122.88h-122.88zM737.28 448h102.4v-20.48h-102.4v20.48zM737.28 529.92h286.72v-40.96h-286.72v40.96zM675.84 550.4c11.311 0 20.48-9.169 20.48-20.48v-122.88c0-11.311-9.169-20.48-20.48-20.48h-122.88c-11.311 0-20.48 9.169-20.48 20.48v122.88c0 11.311 9.169 20.48 20.48 20.48h122.88zM552.96 529.92v-122.88h122.88v122.88h-122.88zM573.44 427.52l14.895 30.72 14.893-30.72 29.79 61.44 22.342-61.44h-81.92zM737.28 714.24h102.4v-20.48h-102.4v20.48zM737.28 796.16h286.72v-40.96h-286.72v40.96zM573.44 693.76l14.895 30.72 14.893-30.72 29.79 61.44 22.342-61.44h-81.92zM675.84 816.64c11.311 0 20.48-9.169 20.48-20.48v-122.88c0-11.311-9.169-20.48-20.48-20.48h-122.88c-11.311 0-20.48 9.169-20.48 20.48v122.88c0 11.311 9.169 20.48 20.48 20.48h122.88zM552.96 796.16v-122.88h122.88v122.88h-122.88zM0 79.36h307.2v-20.48h-307.2v20.48zM0 181.76h409.6v-40.96h-409.6v40.96zM122.88 263.68h81.92v-40.96h-81.92v40.96zM0 263.68h81.92v-40.96h-81.92v40.96zM20.48 816.64h430.080c11.311 0 20.48-9.169 20.48-20.48v-430.080c0-11.311-9.169-20.48-20.48-20.48h-430.080c-11.311 0-20.48 9.169-20.48 20.48v430.080c0 11.311 9.169 20.48 20.48 20.48z" />
<glyph unicode="&#xe91d;" glyph-name="filter-tab-2" d="M737.28 99.84h102.4v-20.48h-102.4v20.48zM737.28 181.76h286.72v-40.96h-286.72v40.96zM573.44 79.36l14.895 30.72 14.893-30.72 29.79 61.44 22.342-61.44h-81.92zM675.84 202.24c11.311 0 20.48-9.169 20.48-20.48v-122.88c0-11.311-9.169-20.48-20.48-20.48h-122.88c-11.311 0-20.48 9.169-20.48 20.48v122.88c0 11.311 9.169 20.48 20.48 20.48h122.88zM552.96 181.76v-122.88h122.88v122.88h-122.88zM737.28 366.080h102.4v-20.48h-102.4v20.48zM737.28 448h286.72v-40.96h-286.72v40.96zM675.84 468.48c11.311 0 20.48-9.169 20.48-20.48v-122.88c0-11.311-9.169-20.48-20.48-20.48h-122.88c-11.311 0-20.48 9.169-20.48 20.48v122.88c0 11.311 9.169 20.48 20.48 20.48h122.88zM552.96 448v-122.88h122.88v122.88h-122.88zM573.44 345.6l14.895 30.72 14.893-30.72 29.79 61.44 22.342-61.44h-81.92zM737.28 632.32h102.4v-20.48h-102.4v20.48zM737.28 714.24h286.72v-40.96h-286.72v40.96zM675.84 734.72c11.311 0 20.48-9.169 20.48-20.48v-122.88c0-11.311-9.169-20.48-20.48-20.48h-122.88c-11.311 0-20.48 9.169-20.48 20.48v122.88c0 11.311 9.169 20.48 20.48 20.48h122.88zM552.96 714.24v-122.88h122.88v122.88h-122.88zM573.44 611.84l14.895 30.72 14.893-30.72 29.79 61.44 22.342-61.44h-81.92zM0-2.56h307.2v-20.48h-307.2v20.48zM0 99.84h409.6v-40.96h-409.6v40.96zM122.88 181.76h81.92v-40.96h-81.92v40.96zM0 181.76h81.92v-40.96h-81.92v40.96zM20.48 734.72h430.080c11.311 0 20.48-9.169 20.48-20.48v-430.080c0-11.311-9.169-20.48-20.48-20.48h-430.080c-11.311 0-20.48 9.169-20.48 20.48v430.080c0 11.311 9.169 20.48 20.48 20.48zM716.8 919.040h163.84c11.311 0 20.48-9.169 20.48-20.48v-40.96c0-11.311-9.169-20.48-20.48-20.48h-163.84c-11.311 0-20.48 9.169-20.48 20.48v40.96c0 11.311 9.169 20.48 20.48 20.48zM143.36 919.040h163.84c11.311 0 20.48-9.169 20.48-20.48v-40.96c0-11.311-9.169-20.48-20.48-20.48h-163.84c-11.311 0-20.48 9.169-20.48 20.48v40.96c0 11.311 9.169 20.48 20.48 20.48zM430.080 919.040h163.84c11.311 0 20.48-9.169 20.48-20.48v-40.96c0-11.311-9.169-20.48-20.48-20.48h-163.84c-11.311 0-20.48 9.169-20.48 20.48v40.96c0 11.311 9.169 20.48 20.48 20.48z" />
<glyph unicode="&#xe91e;" glyph-name="filter-tab-1" d="M409.6 140.8h552.96v-40.96h-552.96v40.96zM552.96 222.72h102.4v-20.48h-102.4v20.48zM409.6 222.72h102.4v-20.48h-102.4v20.48zM133.12 89.6l26.066 53.76 26.065-53.76 52.131 107.52 39.098-107.52h-143.36zM329.779 304.54c10.326-1.051 18.381-9.777 18.381-20.38v-245.76l-0.1-2.099c-0.981-9.636-8.645-17.299-18.28-18.28l-2.099-0.1h-245.76c-10.602 0-19.329 8.055-20.38 18.381l-0.1 2.099v245.76c0 11.311 9.169 20.48 20.48 20.48l247.859-0.1zM81.92 284.16v-245.76h245.76v245.76h-245.76zM409.6 488.96h552.96v-40.96h-552.96v40.96zM552.96 570.88h102.4v-20.48h-102.4v20.48zM409.6 570.88h102.4v-20.48h-102.4v20.48zM327.68 652.8c11.311 0 20.48-9.169 20.48-20.48v-245.76c0-11.311-9.169-20.48-20.48-20.48h-245.76c-11.311 0-20.48 9.169-20.48 20.48v245.76c0 11.311 9.169 20.48 20.48 20.48h245.76zM81.92 632.32v-245.76h245.76v245.76h-245.76zM133.12 437.76l26.066 53.76 26.065-53.76 52.131 107.52 39.098-107.52h-143.36zM716.8 878.080h163.84c11.311 0 20.48-9.169 20.48-20.48v-40.96c0-11.311-9.169-20.48-20.48-20.48h-163.84c-11.311 0-20.48 9.169-20.48 20.48v40.96c0 11.311 9.169 20.48 20.48 20.48zM143.36 878.080h163.84c11.311 0 20.48-9.169 20.48-20.48v-40.96c0-11.311-9.169-20.48-20.48-20.48h-163.84c-11.311 0-20.48 9.169-20.48 20.48v40.96c0 11.311 9.169 20.48 20.48 20.48zM430.080 878.080h163.84c11.311 0 20.48-9.169 20.48-20.48v-40.96c0-11.311-9.169-20.48-20.48-20.48h-163.84c-11.311 0-20.48 9.169-20.48 20.48v40.96c0 11.311 9.169 20.48 20.48 20.48z" />
<glyph unicode="&#xe91f;" glyph-name="button" d="M983.040 652.8c22.622 0 40.96-18.338 40.96-40.96v-327.68c0-22.622-18.338-40.96-40.96-40.96h-942.080c-22.622 0-40.96 18.338-40.96 40.96v327.68c0 22.622 18.338 40.96 40.96 40.96h942.080zM819.2 529.92c-45.242 0-81.92-36.678-81.92-81.92s36.678-81.92 81.92-81.92c45.242 0 81.92 36.678 81.92 81.92s-36.678 81.92-81.92 81.92zM143.36 407.040h450.56v81.92h-450.56v-81.92z" />
<glyph unicode="&#xe920;" glyph-name="taxonomy" d="M0 38.4v-81.92h409.6v81.92h-409.6zM0 345.6v-81.92h614.4v81.92h-614.4zM0 652.8v-81.92h716.8v81.92h-716.8zM0 960v-81.92h512v81.92h-512zM1024 79.36l-61.44-143.36-61.44 143.36h122.88zM1024 870.34h-122.88v-790.98h122.88v790.98zM928.42 960c-7.238-0.002-14.18-3.864-19.3-10.74-5.12-6.881-7.999-16.228-7.999-25.96v-24.74h122.88v24.74c0 9.732-2.879 19.079-7.999 25.96-5.12 6.876-12.063 10.738-19.3 10.74h-68.28z" />
<glyph unicode="&#xe921;" glyph-name="heading" d="M512 857.6c226.216 0 409.6-183.384 409.6-409.6s-183.384-409.6-409.6-409.6c-226.216 0-409.6 183.384-409.6 409.6s183.384 409.6 409.6 409.6zM368.64 284.16h61.44v122.88h163.84v-122.88h61.44v327.68h-61.44v-143.36h-163.84v143.36h-61.44v-327.68z" />
<glyph unicode="&#xe922;" glyph-name="post-carousel-2" d="M880.64-2.56v20.48h-327.68v-20.48h327.68zM1024 120.32v40.96h-471.040v-40.96h471.040zM757.76 243.2v40.96h-81.92v-40.96h81.92zM634.88 243.2v40.96h-81.92v-40.96h81.92zM1003.52 898.56c11.311 0 20.48-9.169 20.48-20.48v-491.52c0-11.311-9.169-20.48-20.48-20.48h-430.080c-11.311 0-20.48 9.169-20.48 20.48v491.52c0 11.311 9.169 20.48 20.48 20.48h430.080zM573.44 878.080v-491.52h430.080v491.52h-430.080zM901.12 755.2c45.242 0 81.92-36.678 81.92-81.92s-36.678-81.92-81.92-81.92c-45.242 0-81.92 36.678-81.92 81.92s36.678 81.92 81.92 81.92zM880.581 637.8l61.44 35.48-61.44 35.48v-70.959zM634.88 448l55.855 112.64 55.853-112.64 111.71 225.28 83.782-225.28h-307.2zM327.68-2.56v20.48h-327.68v-20.48h327.68zM471.040 120.32v40.96h-471.040v-40.96h471.040zM204.8 243.2v40.96h-81.92v-40.96h81.92zM81.92 243.2v40.96h-81.92v-40.96h81.92zM450.56 898.56c11.311 0 20.48-9.169 20.48-20.48v-491.52c0-11.311-9.169-20.48-20.48-20.48h-430.080c-11.311 0-20.48 9.169-20.48 20.48v491.52c0 11.311 9.169 20.48 20.48 20.48h430.080zM20.48 878.080v-491.52h430.080v491.52h-430.080zM122.88 755.2c45.243 0 81.92-36.678 81.92-81.92s-36.677-81.92-81.92-81.92c-45.243 0-81.92 36.678-81.92 81.92s36.677 81.92 81.92 81.92zM81.86 673.28l61.44-35.48v70.959l-61.44-35.48zM81.92 448l55.854 112.64 55.855-112.64 111.709 225.28 83.782-225.28h-307.2z" />
<glyph unicode="&#xe923;" glyph-name="post-carousel-1" d="M1003.52 837.12c11.311 0 20.48-9.169 20.48-20.48v-737.28c0-11.311-9.169-20.48-20.48-20.48h-430.080c-11.311 0-20.48 9.169-20.48 20.48v737.28c0 11.311 9.169 20.48 20.48 20.48h430.080zM634.88 181.76h286.72v40.96h-286.72v-40.96zM634.88 304.64h81.92v40.96h-81.92v-40.96zM757.76 304.64h81.92v40.96h-81.92v-40.96zM901.12 632.32c-45.242 0-81.92-36.678-81.92-81.92s36.678-81.92 81.92-81.92c45.242 0 81.92 36.678 81.92 81.92s-36.678 81.92-81.92 81.92zM942.021 550.4l-61.44-35.48v70.959l61.44-35.48zM450.56 837.12c11.311 0 20.48-9.169 20.48-20.48v-737.28c0-11.311-9.169-20.48-20.48-20.48h-430.080c-11.311 0-20.48 9.169-20.48 20.48v737.28c0 11.311 9.169 20.48 20.48 20.48h430.080zM81.92 181.76h286.72v40.96h-286.72v-40.96zM81.92 304.64h81.92v40.96h-81.92v-40.96zM204.8 304.64h81.92v40.96h-81.92v-40.96zM122.88 632.32c-45.243 0-81.92-36.678-81.92-81.92s36.677-81.92 81.92-81.92c45.243 0 81.92 36.678 81.92 81.92s-36.677 81.92-81.92 81.92zM143.3 514.92l-61.44 35.48 61.44 35.48v-70.959z" />
<glyph unicode="&#xe924;" glyph-name="post-blog-slider" d="M1003.52 755.2c11.311 0 20.48-9.169 20.48-20.48v-573.44c0-11.311-9.169-20.48-20.48-20.48h-983.040c-11.311 0-20.48 9.169-20.48 20.48v573.44c0 11.311 9.169 20.48 20.48 20.48h983.040zM245.76 529.92c-11.311 0-20.48-9.169-20.48-20.48v-286.72c0-11.311 9.169-20.48 20.48-20.48h532.48c11.311 0 20.48 9.169 20.48 20.48v286.72c0 11.311-9.169 20.48-20.48 20.48h-532.48zM696.32 325.12c11.311 0 20.48-9.169 20.48-20.48s-9.169-20.48-20.48-20.48h-368.64c-11.311 0-20.48 9.169-20.48 20.48s9.169 20.48 20.48 20.48h368.64zM102.4 529.92c-45.243 0-81.92-36.678-81.92-81.92s36.677-81.92 81.92-81.92c45.243 0 81.92 36.678 81.92 81.92s-36.677 81.92-81.92 81.92zM921.6 529.92c-45.242 0-81.92-36.678-81.92-81.92s36.678-81.92 81.92-81.92c45.242 0 81.92 36.678 81.92 81.92s-36.678 81.92-81.92 81.92zM532.48 427.52c11.311 0 20.48-9.169 20.48-20.48s-9.169-20.48-20.48-20.48h-40.96c-11.311 0-20.48 9.169-20.48 20.48s9.169 20.48 20.48 20.48h40.96zM122.82 412.52l-61.44 35.48 61.44 35.48v-70.959zM962.501 448l-61.44-35.48v70.959l61.44-35.48z" />
<glyph unicode="&#xe925;" glyph-name="post-grid-5" d="M1003.52 458.24c11.311 0 20.48-9.169 20.48-20.48v-235.52c0-11.311-9.169-20.48-20.48-20.48h-184.32c-11.311 0-20.48 9.169-20.48 20.48v235.52c0 11.311 9.169 20.48 20.48 20.48h184.32zM839.68 232.96h122.88v40.96h-122.88v-40.96zM839.68 335.36v-20.48h40.96v20.48h-40.96zM921.6 314.88h40.96v20.48h-40.96v-20.48zM1003.52 796.16c11.311 0 20.48-9.169 20.48-20.48v-235.52c0-11.311-9.169-20.48-20.48-20.48h-184.32c-11.311 0-20.48 9.169-20.48 20.48v235.52c0 11.311 9.169 20.48 20.48 20.48h184.32zM839.68 591.36h122.88v40.96h-122.88v-40.96zM839.68 693.76v-20.48h40.96v20.48h-40.96zM921.6 673.28h40.96v20.48h-40.96v-20.48zM716.8 796.16c11.311 0 20.48-9.169 20.48-20.48v-573.44c0-11.311-9.169-20.48-20.48-20.48h-225.28c-11.311 0-20.48 9.169-20.48 20.48v573.44c0 11.311 9.169 20.48 20.48 20.48h225.28zM512 232.96h122.88v40.96h-122.88v-40.96zM512 335.36v-20.48h40.96v20.48h-40.96zM593.92 314.88h40.96v20.48h-40.96v-20.48zM389.12 796.16c11.311 0 20.48-9.169 20.48-20.48v-573.44c0-11.311-9.169-20.48-20.48-20.48h-368.64c-11.311 0-20.48 9.169-20.48 20.48v573.44c0 11.311 9.169 20.48 20.48 20.48h368.64zM81.92 304.64h245.76v40.96h-245.76v-40.96zM81.92 468.48v-40.96h81.92v40.96h-81.92zM204.8 427.52h81.92v40.96h-81.92v-40.96z" />
<glyph unicode="&#xe926;" glyph-name="post-grid-4" d="M1003.52 417.28c11.311 0 20.48-9.169 20.48-20.48v-276.48c0-11.311-9.169-20.48-20.48-20.48h-184.32c-11.311 0-20.48 9.169-20.48 20.48v276.48c0 11.311 9.169 20.48 20.48 20.48h184.32zM839.68 171.52h122.88v40.96h-122.88v-40.96zM839.68 273.92v-20.48h40.96v20.48h-40.96zM921.6 253.44h40.96v20.48h-40.96v-20.48zM1003.52 796.16c11.311 0 20.48-9.169 20.48-20.48v-276.48c0-11.311-9.169-20.48-20.48-20.48h-184.32c-11.311 0-20.48 9.169-20.48 20.48v276.48c0 11.311 9.169 20.48 20.48 20.48h184.32zM839.68 550.4h122.88v40.96h-122.88v-40.96zM839.68 652.8v-20.48h40.96v20.48h-40.96zM921.6 632.32h40.96v20.48h-40.96v-20.48zM716.8 427.52c11.311 0 20.48-9.169 20.48-20.48v-276.48c0-11.311-9.169-20.48-20.48-20.48h-184.32c-11.311 0-20.48 9.169-20.48 20.48v276.48c0 11.311 9.169 20.48 20.48 20.48h184.32zM552.96 181.76h122.88v40.96h-122.88v-40.96zM552.96 284.16v-20.48h40.96v20.48h-40.96zM634.88 263.68h40.96v20.48h-40.96v-20.48zM716.8 796.16c11.311 0 20.48-9.169 20.48-20.48v-276.48c0-11.311-9.169-20.48-20.48-20.48h-184.32c-11.311 0-20.48 9.169-20.48 20.48v276.48c0 11.311 9.169 20.48 20.48 20.48h184.32zM552.96 550.4h122.88v40.96h-122.88v-40.96zM552.96 652.8v-20.48h40.96v20.48h-40.96zM634.88 632.32h40.96v20.48h-40.96v-20.48zM430.080 796.16c11.311 0 20.48-9.169 20.48-20.48v-655.36c0-11.311-9.169-20.48-20.48-20.48h-409.6c-11.311 0-20.48 9.169-20.48 20.48v655.36c0 11.311 9.169 20.48 20.48 20.48h409.6zM81.92 222.72h286.72v40.96h-286.72v-40.96zM81.92 386.56v-40.96h81.92v40.96h-81.92zM204.8 345.6h81.92v40.96h-81.92v-40.96z" />
<glyph unicode="&#xe927;" glyph-name="post-grid-3" d="M983.040 417.28c22.622 0 40.96-18.338 40.96-40.96v-276.48c0-22.622-18.338-40.96-40.96-40.96h-430.080c-22.622 0-40.96 18.338-40.96 40.96v276.48c0 22.622 18.338 40.96 40.96 40.96h430.080zM593.92 130.56h286.72v40.96h-286.72v-40.96zM593.92 273.92v-40.96h81.92v40.96h-81.92zM716.8 232.96h81.92v40.96h-81.92v-40.96zM983.040 837.12c22.622 0 40.96-18.338 40.96-40.96v-276.48c0-22.622-18.338-40.96-40.96-40.96h-430.080c-22.622 0-40.96 18.338-40.96 40.96v276.48c0 22.622 18.338 40.96 40.96 40.96h430.080zM593.92 550.4h286.72v40.96h-286.72v-40.96zM593.92 693.76v-40.96h81.92v40.96h-81.92zM716.8 652.8h81.92v40.96h-81.92v-40.96zM409.6 837.12c22.622 0 40.96-18.338 40.96-40.96v-696.32c0-22.622-18.338-40.96-40.96-40.96h-368.64c-22.622 0-40.96 18.338-40.96 40.96v696.32c0 22.622 18.338 40.96 40.96 40.96h368.64zM81.92 181.76h286.72v40.96h-286.72v-40.96zM81.92 345.6v-40.96h81.92v40.96h-81.92zM204.8 304.64h81.92v40.96h-81.92v-40.96z" />
<glyph unicode="&#xe928;" glyph-name="post-grid-2" d="M1003.52 304.64c11.311 0 20.48-9.169 20.48-20.48v-204.8c0-11.311-9.169-20.48-20.48-20.48h-184.32c-11.311 0-20.48 9.169-20.48 20.48v204.8c0 11.311 9.169 20.48 20.48 20.48h184.32zM839.68 120.32h122.88v40.96h-122.88v-40.96zM839.68 222.72v-20.48h40.96v20.48h-40.96zM921.6 202.24h40.96v20.48h-40.96v-20.48zM716.8 304.64c11.311 0 20.48-9.169 20.48-20.48v-204.8c0-11.311-9.169-20.48-20.48-20.48h-184.32c-11.311 0-20.48 9.169-20.48 20.48v204.8c0 11.311 9.169 20.48 20.48 20.48h184.32zM552.96 120.32h122.88v40.96h-122.88v-40.96zM552.96 222.72v-20.48h40.96v20.48h-40.96zM634.88 202.24h40.96v20.48h-40.96v-20.48zM1003.52 837.12c11.311 0 20.48-9.169 20.48-20.48v-430.080c0-11.311-9.169-20.48-20.48-20.48h-471.040c-11.311 0-20.48 9.169-20.48 20.48v430.080c0 11.311 9.169 20.48 20.48 20.48h471.040zM593.92 488.96h286.72v40.96h-286.72v-40.96zM593.92 652.8v-40.96h81.92v40.96h-81.92zM716.8 611.84h81.92v40.96h-81.92v-40.96zM430.080 837.12c11.311 0 20.48-9.169 20.48-20.48v-737.28c0-11.311-9.169-20.48-20.48-20.48h-409.6c-11.311 0-20.48 9.169-20.48 20.48v737.28c0 11.311 9.169 20.48 20.48 20.48h409.6zM81.92 181.76h286.72v40.96h-286.72v-40.96zM81.92 345.6v-40.96h81.92v40.96h-81.92zM204.8 304.64h81.92v40.96h-81.92v-40.96z" />
<glyph unicode="&#xe929;" glyph-name="post-grid-1" d="M1003.52 263.68c11.311 0 20.48-9.169 20.48-20.48v-286.72c0-11.311-9.169-20.48-20.48-20.48h-245.76c-11.311 0-20.48 9.169-20.48 20.48v286.72c0 11.311 9.169 20.48 20.48 20.48h245.76zM798.72 17.92h163.84v40.96h-163.84v-40.96zM798.72 120.32v-20.48h40.96v20.48h-40.96zM860.16 99.84h40.96v20.48h-40.96v-20.48zM634.88 263.68c11.311 0 20.48-9.169 20.48-20.48v-286.72c0-11.311-9.169-20.48-20.48-20.48h-245.76c-11.311 0-20.48 9.169-20.48 20.48v286.72c0 11.311 9.169 20.48 20.48 20.48h245.76zM430.080 17.92h163.84v40.96h-163.84v-40.96zM430.080 120.32v-20.48h40.96v20.48h-40.96zM491.52 99.84h40.96v20.48h-40.96v-20.48zM266.24 263.68c11.311 0 20.48-9.169 20.48-20.48v-286.72c0-11.311-9.169-20.48-20.48-20.48h-245.76c-11.311 0-20.48 9.169-20.48 20.48v286.72c0 11.311 9.169 20.48 20.48 20.48h245.76zM61.44 17.92h163.84v40.96h-163.84v-40.96zM61.44 120.32v-20.48h40.96v20.48h-40.96zM122.88 99.84h40.96v20.48h-40.96v-20.48zM1003.52 960c11.311 0 20.48-9.169 20.48-20.48v-573.44c0-11.311-9.169-20.48-20.48-20.48h-983.040c-11.311 0-20.48 9.169-20.48 20.48v573.44c0 11.311 9.169 20.48 20.48 20.48h983.040zM122.88 468.48h634.88v40.96h-634.88v-40.96zM122.88 632.32v-40.96h81.92v40.96h-81.92zM245.76 591.36h81.92v40.96h-81.92v-40.96z" />
<glyph unicode="&#xe92a;" glyph-name="post-blog-2" d="M450.56 837.12c11.311 0 20.48-9.169 20.48-20.48v-737.28c0-11.311-9.169-20.48-20.48-20.48h-430.080c-11.311 0-20.48 9.169-20.48 20.48v737.28c0 11.311 9.169 20.48 20.48 20.48h430.080zM61.44 202.24v-40.96h327.68v40.96h-327.68zM61.44 273.92h81.92v40.96h-81.92v-40.96zM184.32 273.92h81.92v40.96h-81.92v-40.96zM1003.52 837.12c11.311 0 20.48-9.169 20.48-20.48v-737.28c0-11.311-9.169-20.48-20.48-20.48h-430.080c-11.311 0-20.48 9.169-20.48 20.48v737.28c0 11.311 9.169 20.48 20.48 20.48h430.080zM614.4 202.24v-40.96h327.68v40.96h-327.68zM614.4 273.92h81.92v40.96h-81.92v-40.96zM737.28 273.92h81.92v40.96h-81.92v-40.96z" />
<glyph unicode="&#xe92b;" glyph-name="post-blog-1" d="M880.64-2.56v20.48h-327.68v-20.48h327.68zM1024 120.32v40.96h-471.040v-40.96h471.040zM757.76 243.2v40.96h-81.92v-40.96h81.92zM634.88 243.2v40.96h-81.92v-40.96h81.92zM1003.52 898.56c11.311 0 20.48-9.169 20.48-20.48v-491.52l-0.1-2.099c-1.051-10.326-9.777-18.381-20.38-18.381h-430.080c-11.311 0-20.48 9.169-20.48 20.48v491.52c0 10.602 8.055 19.329 18.381 20.38l2.099 0.1h430.080zM573.44 878.080v-491.52h430.080v491.52h-430.080zM634.88 448l55.855 112.64 55.853-112.64 111.71 225.28 83.782-225.28h-307.2zM327.68-2.56v20.48h-327.68v-20.48h327.68zM471.040 120.32v40.96h-471.040v-40.96h471.040zM204.8 243.2v40.96h-81.92v-40.96h81.92zM81.92 243.2v40.96h-81.92v-40.96h81.92zM450.56 898.56c11.311 0 20.48-9.169 20.48-20.48v-491.52l-0.1-2.099c-1.051-10.326-9.777-18.381-20.38-18.381h-430.080c-11.311 0-20.48 9.169-20.48 20.48v491.52c0 10.602 8.055 19.329 18.38 20.38l2.1 0.1h430.080zM20.48 878.080v-491.52h430.080v491.52h-430.080zM81.92 448l55.854 112.64 55.855-112.64 111.709 225.28 83.782-225.28h-307.2z" />
<glyph unicode="&#xe92c;" glyph-name="ticker" horiz-adv-x="1434" d="M1413.12 714.24c11.311 0 20.48-9.169 20.48-20.48v-491.52c0-11.311-9.169-20.48-20.48-20.48h-1392.64c-11.311 0-20.48 9.169-20.48 20.48v491.52c0 11.311 9.169 20.48 20.48 20.48h1392.64zM61.44 673.28c-11.311 0-20.48-9.169-20.48-20.48v-409.6c0-11.311 9.169-20.48 20.48-20.48h1310.72c11.311 0 20.48 9.169 20.48 20.48v409.6c0 11.311-9.169 20.48-20.48 20.48h-1310.72zM1105.92 550.4h40.96v-204.8h-40.96v204.8zM1228.8 550.4h40.96v-204.8h-40.96v204.8zM85.215 386.56v100.352h14.336l51.18-76.984v76.984h14.336v-100.352h-14.336l-51.18 76.841v-76.841h-14.336zM217.985 384.84c-6.881 0-12.999 1.577-18.35 4.731s-9.557 7.551-12.616 13.189c-2.963 5.638-4.444 12.186-4.444 19.64 0 7.645 1.481 14.289 4.444 19.927 3.058 5.734 7.263 10.179 12.616 13.332 5.352 3.25 11.563 4.874 18.637 4.874 7.072 0 13.14-1.577 18.207-4.731 5.065-3.154 8.983-7.358 11.756-12.616 2.771-5.161 4.157-10.895 4.157-17.203 0-0.956-0.049-2.007-0.143-3.154 0-1.051-0.049-2.247-0.143-3.584h-59.065v10.179h45.015c-0.287 6.021-2.294 10.705-6.021 14.049-3.727 3.441-8.364 5.161-13.906 5.161-3.92 0-7.504-0.907-10.752-2.724-3.25-1.72-5.878-4.301-7.885-7.741-1.912-3.344-2.867-7.598-2.867-12.759v-4.014c0-5.351 0.956-9.892 2.867-13.619 2.007-3.631 4.635-6.404 7.885-8.315 3.248-1.817 6.785-2.724 10.609-2.724 4.588 0 8.362 1.004 11.325 3.011 2.961 2.007 5.161 4.731 6.595 8.172h14.336c-1.243-4.397-3.346-8.362-6.308-11.899-2.963-3.441-6.644-6.164-11.039-8.172-4.301-2.007-9.271-3.011-14.909-3.011zM280.142 386.56l-21.217 72.253h14.193l15.77-60.211-2.724 0.143 17.49 60.068h16.056l17.49-60.068-2.724-0.143 15.626 60.211h14.479l-21.217-72.253h-14.766l-18.35 62.648h2.867l-18.35-62.648h-14.623zM405.473 384.84c-6.115 0-11.469 1.004-16.056 3.011s-8.219 4.827-10.895 8.458c-2.675 3.631-4.301 7.885-4.874 12.759h14.623c0.479-2.294 1.386-4.397 2.724-6.308 1.434-1.911 3.346-3.441 5.734-4.588 2.486-1.147 5.401-1.72 8.745-1.72 3.154 0 5.734 0.43 7.741 1.29 2.103 0.956 3.633 2.198 4.588 3.727 0.956 1.624 1.434 3.344 1.434 5.161 0 2.677-0.668 4.684-2.007 6.021-1.241 1.434-3.154 2.533-5.734 3.297-2.484 0.86-5.495 1.624-9.032 2.294-3.344 0.573-6.595 1.337-9.748 2.294-3.058 1.051-5.829 2.341-8.315 3.871-2.388 1.53-4.301 3.441-5.734 5.734-1.434 2.39-2.15 5.304-2.15 8.745 0 4.11 1.1 7.789 3.297 11.039 2.2 3.344 5.304 5.925 9.318 7.741 4.11 1.911 8.937 2.867 14.479 2.867 8.028 0 14.479-1.911 19.354-5.734s7.741-9.222 8.602-16.2h-13.906c-0.381 3.25-1.815 5.734-4.301 7.455-2.484 1.817-5.782 2.724-9.892 2.724-4.108 0-7.262-0.813-9.462-2.437-2.198-1.624-3.297-3.774-3.297-6.451 0-1.72 0.623-3.25 1.864-4.588 1.243-1.337 3.060-2.484 5.448-3.441 2.486-0.86 5.497-1.673 9.032-2.437 5.067-0.956 9.605-2.15 13.619-3.584s7.217-3.537 9.605-6.308c2.39-2.771 3.584-6.738 3.584-11.899 0.096-4.491-1.051-8.458-3.441-11.899-2.294-3.441-5.591-6.117-9.892-8.028-4.205-1.911-9.222-2.867-15.053-2.867zM942.080 632.32c11.311 0 20.48-9.169 20.48-20.48v-327.68c0-11.311-9.169-20.48-20.48-20.48h-409.6c-11.311 0-20.48 9.169-20.48 20.48v327.68c0 11.311 9.169 20.48 20.48 20.48h409.6zM593.92 488.96c-22.622 0-40.96-18.338-40.96-40.96s18.338-40.96 40.96-40.96c22.622 0 40.96 18.338 40.96 40.96s-18.338 40.96-40.96 40.96zM737.28 488.96c-22.622 0-40.96-18.338-40.96-40.96s18.338-40.96 40.96-40.96c22.622 0 40.96 18.338 40.96 40.96s-18.338 40.96-40.96 40.96zM880.64 488.96c-22.622 0-40.96-18.338-40.96-40.96s18.338-40.96 40.96-40.96c22.622 0 40.96 18.338 40.96 40.96s-18.338 40.96-40.96 40.96z" />
<glyph unicode="&#xe92d;" glyph-name="post-list-2" d="M266.24-2.56h614.4v-40.96h-614.4v40.96zM430.080 79.36h122.88v-20.48h-122.88v20.48zM266.24 79.36h122.88v-20.48h-122.88v20.48zM184.32 99.84c11.311 0 20.48-9.169 20.48-20.48v-122.88c0-11.311-9.169-20.48-20.48-20.48h-163.84c-11.311 0-20.48 9.169-20.48 20.48v122.88c0 11.311 9.169 20.48 20.48 20.48h163.84zM20.48 79.36v-122.88h163.84v122.88h-163.84zM40.96-23.040l22.342 40.96 22.342-40.96 44.684 81.92 33.513-81.92h-122.88zM266.24 202.24h614.4v-40.96h-614.4v40.96zM430.080 284.16h122.88v-20.48h-122.88v20.48zM266.24 284.16h122.88v-20.48h-122.88v20.48zM184.32 304.64c11.311 0 20.48-9.169 20.48-20.48v-122.88c0-11.311-9.169-20.48-20.48-20.48h-163.84c-11.311 0-20.48 9.169-20.48 20.48v122.88c0 11.311 9.169 20.48 20.48 20.48h163.84zM20.48 284.16v-122.88h163.84v122.88h-163.84zM40.96 181.76l22.342 40.96 22.342-40.96 44.684 81.92 33.513-81.92h-122.88zM0 427.52h512v-20.48h-512v20.48zM0 529.92h778.24v-40.96h-778.24v40.96zM1003.52 960c11.311 0 20.48-9.169 20.48-20.48v-327.68c0-11.311-9.169-20.48-20.48-20.48h-983.040c-11.311 0-20.48 9.169-20.48 20.48v327.68c0 11.311 9.169 20.48 20.48 20.48h983.040zM81.92 878.080v-40.96h122.88v40.96h-122.88zM266.24 837.12h122.88v40.96h-122.88v-40.96z" />
<glyph unicode="&#xe92e;" glyph-name="post-list-1" d="M512 38.4h512v-20.48h-512v20.48zM512 181.76h512v-40.96h-512v40.96zM634.88 304.64h81.92v-40.96h-81.92v40.96zM512 304.64h81.92v-40.96h-81.92v40.96zM409.6 407.040c11.311 0 20.48-9.169 20.48-20.48v-430.080c0-11.311-9.169-20.48-20.48-20.48h-389.12c-11.311 0-20.48 9.169-20.48 20.48v430.080c0 11.311 9.169 20.48 20.48 20.48h389.12zM40.96 386.56c-11.311 0-20.48-9.169-20.48-20.48v-389.12c0-11.311 9.169-20.48 20.48-20.48h348.16c11.311 0 20.48 9.169 20.48 20.48v389.12c0 11.311-9.169 20.48-20.48 20.48h-348.16zM368.64-2.56l-55.855 112.64-55.853-112.64-111.71 225.28-83.782-225.28h307.2zM512 591.36h512v-20.48h-512v20.48zM512 734.72h512v-40.96h-512v40.96zM634.88 857.6h81.92v-40.96h-81.92v40.96zM512 857.6h81.92v-40.96h-81.92v40.96zM409.6 960c11.311 0 20.48-9.169 20.48-20.48v-430.080c0-11.311-9.169-20.48-20.48-20.48h-389.12c-11.311 0-20.48 9.169-20.48 20.48v430.080c0 11.311 9.169 20.48 20.48 20.48h389.12zM40.96 939.52c-11.311 0-20.48-9.169-20.48-20.48v-389.12c0-11.311 9.169-20.48 20.48-20.48h348.16c11.311 0 20.48 9.169 20.48 20.48v389.12c0 11.311-9.169 20.48-20.48 20.48h-348.16zM368.64 550.4l-55.855 112.64-55.853-112.64-111.71 225.28-83.782-225.28h307.2z" />
<glyph unicode="&#xe92f;" glyph-name="archive-post-list" d="M1003.52 939.52c11.311 0 20.48-9.169 20.48-20.48v-901.12c0-11.311-9.169-20.48-20.48-20.48h-983.040c-11.311 0-20.48 9.169-20.48 20.48v901.12c0 11.311 9.169 20.48 20.48 20.48h983.040zM40.96 898.56v-860.16h942.080v860.16h-942.080zM40.96 755.2h962.56v-40.96h-962.56v40.96zM163.84 826.88c0-16.966-13.754-30.72-30.72-30.72s-30.72 13.754-30.72 30.72c0 16.966 13.754 30.72 30.72 30.72s30.72-13.754 30.72-30.72zM286.72 826.88c0-16.966-13.754-30.72-30.72-30.72s-30.72 13.754-30.72 30.72c0 16.966 13.754 30.72 30.72 30.72s30.72-13.754 30.72-30.72zM409.6 826.88c0-16.966-13.754-30.72-30.72-30.72s-30.72 13.754-30.72 30.72c0 16.966 13.754 30.72 30.72 30.72s30.72-13.754 30.72-30.72zM512 141.621h368.64v-11.469h-368.64v11.469zM512 221.903h368.64v-22.938h-368.64v22.938zM600.49 290.716h58.982v-22.938h-58.982v22.938zM512 290.716h58.982v-22.938h-58.982v22.938zM432.54 348.060c11.309 0 20.48-9.169 20.48-20.48v-222.82c0-11.309-9.171-20.478-20.48-20.48h-268.7c-11.311 0-20.48 9.169-20.48 20.48v222.82c0 11.311 9.169 20.48 20.48 20.48h268.7zM178.58 336.599c-11.304-0.004-20.475-9.175-20.48-20.48v-199.899c0.003-11.305 9.176-20.474 20.48-20.48h239.22c11.307 0.002 20.476 9.173 20.48 20.48v199.899c-0.004 11.307-9.175 20.478-20.48 20.48h-239.22zM408.76 118.684l-40.217 63.078-40.215-63.078-80.431 126.157-60.322-126.157h221.184zM512 466.842h368.64v-11.469h-368.64v11.469zM512 547.123h368.64v-22.938h-368.64v22.938zM600.49 615.936h58.982v-22.938h-58.982v22.938zM512 615.936h58.982v-22.938h-58.982v22.938zM432.54 673.28c11.309-0.002 20.48-9.171 20.48-20.48v-222.82c0-11.309-9.171-20.478-20.48-20.48h-268.7c-11.311 0-20.48 9.169-20.48 20.48v222.82c0 11.311 9.169 20.48 20.48 20.48h268.7zM178.58 661.819c-11.304-0.004-20.475-9.175-20.48-20.48v-199.899c0.003-11.305 9.176-20.476 20.48-20.48h239.22c11.307 0.002 20.476 9.173 20.48 20.48v199.899c-0.004 11.307-9.175 20.478-20.48 20.48h-239.22zM408.76 443.904l-40.217 63.078-40.215-63.078-80.431 126.157-60.322-126.157h221.184z" />
<glyph unicode="&#xe930;" glyph-name="archive-post" d="M1003.52 939.52c11.311 0 20.48-9.169 20.48-20.48v-901.12c0-11.311-9.169-20.48-20.48-20.48h-983.040c-11.311 0-20.48 9.169-20.48 20.48v901.12c0 11.311 9.169 20.48 20.48 20.48h983.040zM40.96 898.56v-860.16h942.080v860.16h-942.080zM40.96 755.2h962.56v-40.96h-962.56v40.96zM163.84 826.88c0-16.966-13.754-30.72-30.72-30.72s-30.72 13.754-30.72 30.72c0 16.966 13.754 30.72 30.72 30.72s30.72-13.754 30.72-30.72zM286.72 826.88c0-16.966-13.754-30.72-30.72-30.72s-30.72 13.754-30.72 30.72c0 16.966 13.754 30.72 30.72 30.72s30.72-13.754 30.72-30.72zM409.6 826.88c0-16.966-13.754-30.72-30.72-30.72s-30.72 13.754-30.72 30.72c0 16.966 13.754 30.72 30.72 30.72s30.72-13.754 30.72-30.72zM353.073 77.724v13.107h-209.713v-13.107h209.713zM444.824 156.367v26.214h-301.464v-26.214h301.464zM274.428 235.010v26.214h-52.429v-26.214h52.429zM195.788 235.008v26.214h-52.428v-26.214h52.428zM424.759 654.438c11.309-0.002 20.48-9.171 20.48-20.48v-299.819c0-11.311-9.171-20.478-20.48-20.48h-260.919c-11.311 0-20.48 9.169-20.48 20.48v299.819c0 11.311 9.169 20.48 20.48 20.48h260.919zM184.32 633.958c-11.311 0-20.48-9.169-20.48-20.48v-258.859c0-11.311 9.169-20.48 20.48-20.48h219.959c11.309 0.002 20.48 9.169 20.48 20.48v258.859c0 11.309-9.171 20.478-20.48 20.48h-219.959zM195.78 366.080l35.746 72.090 35.748-72.090 71.492 144.177 53.621-144.177h-196.607zM783.153 77.724v13.107h-209.713v-13.107h209.713zM874.904 156.367v26.214h-301.464v-26.214h301.464zM704.508 235.010v26.214h-52.429v-26.214h52.429zM625.869 235.008v26.214h-52.429v-26.214h52.429zM854.839 654.438c11.309-0.002 20.48-9.171 20.48-20.48v-299.819c0-11.311-9.171-20.478-20.48-20.48h-260.919c-11.311 0-20.48 9.169-20.48 20.48v299.819c0 11.311 9.169 20.48 20.48 20.48h260.919zM614.4 633.958c-11.311 0-20.48-9.169-20.48-20.48v-258.859c0-11.311 9.169-20.48 20.48-20.48h219.959c11.309 0.002 20.48 9.169 20.48 20.48v258.859c0 11.309-9.171 20.478-20.48 20.48h-219.959zM625.861 366.080l35.746 72.090 35.748-72.090 71.492 144.177 53.621-144.177h-196.606z" />
<glyph unicode="&#xe931;" glyph-name="scroll-to-top" d="M522.24 939.52c277.115 0 501.76-224.645 501.76-501.76s-224.645-501.76-501.76-501.76c-277.115 0-501.76 224.645-501.76 501.76s224.645 501.76 501.76 501.76zM523.96 898.56c-254.493 0-460.8-206.307-460.8-460.8s206.308-460.8 460.8-460.8c254.489 0.006 460.8 206.311 460.8 460.8s-206.311 460.795-460.8 460.8zM531.278 665.029c-10.662 11.002-27.978 11.002-38.642 0l-136.479-140.806c-10.664-11-10.664-28.865 0-39.866 10.662-11 27.978-11 38.64 0l89.907 92.758v-326.232c0-15.577 12.198-28.162 27.296-28.162s27.296 12.585 27.296 28.162v326.232l89.907-92.758c10.662-11 27.978-11 38.64 0 10.664 11.002 10.664 28.867 0 39.866l-136.565 140.806z" />
<glyph unicode="&#xe935;" glyph-name="breadcrumb" d="M1003.52 919.040c11.311 0 20.48-9.169 20.48-20.48v-901.12c0-11.311-9.169-20.48-20.48-20.48h-983.040c-11.311 0-20.48 9.169-20.48 20.48v901.12c0 11.311 9.169 20.48 20.48 20.48h983.040zM40.96 878.080v-860.16h942.080v860.16h-942.080zM587.903 699.777c7.999 7.999 7.999 20.992 0 28.991l-102.4 102.4c-8.002 8-20.992 8-28.994 0-7.999-8-7.999-20.992 0-28.992l87.937-87.936-87.871-87.935c-8.002-8.002-8.002-20.992 0-28.994 7.999-7.999 20.992-7.999 28.991 0l102.4 102.4-0.063 0.066zM143.36 734.72h286.72c11.311 0 20.48-9.169 20.48-20.48s-9.169-20.48-20.48-20.48h-286.72c-11.311 0-20.48 9.169-20.48 20.48s9.169 20.48 20.48 20.48zM655.36 734.72h286.72c11.311 0 20.48-9.169 20.48-20.48s-9.169-20.48-20.48-20.48h-286.72c-11.311 0-20.48 9.169-20.48 20.48s9.169 20.48 20.48 20.48z" />
</font>
</defs>
</svg>
